# xmcd CD database file
#
# Track frame offsets:
#	150
#	16737
#	30958
#	48571
#	63422
#	76960
#	93622
#	119803
#	135943
#	147407
#	165510
#	182699
#
# Disc length: 2633 seconds
#
# Revision: 2
# Processed by: cddbd v1.5.2PL0 Copyright (c) Steve Scherf et al.
# Submitted via: CDex 1.40Beta8
#
DISCID=990a470c
DTITLE=Various Artist - Texas Unplugged
DYEAR=2004
DGENRE=Country
TTITLE0=TC Taylor - Don't It Make You Wanna Dance?
TTITLE1=Mike McClure - My Sweet Lily
TTITLE2=Becca Dalrymple - No Man's Land
TTITLE3=Ed Burleson - The Way You've Been Treating Me
TTITLE4=Houston Marchman - Dark Black Irish Eyes
TTITLE5=Deryl Dodd - Old Time Sake
TTITLE6=Sisters Morales - Even The Rain
TTITLE7=Terri Hendrix - Clicker
TTITLE8=Eleven Hundred Springs - Kick Me When I'm Down
TTITLE9=Larry Joe Taylor - Welcome to Paradise
TTITLE10=Brian Burns - Bicycling in a Border Town
TTITLE11=Tommy Alverson - Texas Woman
EXTD=YEAR: 2004 ID3G: 2
EXTT0=
EXTT1=
EXTT2=
EXTT3=
EXTT4=
EXTT5=
EXTT6=
EXTT7=
EXTT8=
EXTT9=
EXTT10=
EXTT11=
PLAYORDER=
